<svg width="1233" height="620" viewBox="0 0 1233 620" fill="none" xmlns="http://www.w3.org/2000/svg">
<path d="M1234.63 642.031C1204.33 672.331 1168.36 696.366 1128.77 712.764C1089.18 729.162 1046.75 737.602 1003.9 737.602C961.053 737.602 918.622 729.162 879.033 712.764C839.444 696.366 803.473 672.331 773.173 642.031C742.874 611.731 718.838 575.76 702.44 536.171C686.042 496.582 677.602 454.151 677.602 411.301" stroke="#D4A0FF" stroke-width="50"/>
<path d="M1003.9 25C1046.75 25 1089.18 33.44 1128.77 49.8382C1168.36 66.2363 1204.33 90.2715 1234.63 120.571C1264.93 150.871 1288.97 186.842 1305.37 226.431C1321.76 266.02 1330.2 308.451 1330.2 351.301" stroke="#FFBE1D" stroke-width="50"/>
<path d="M25.0001 351.301C25.0001 308.451 33.4401 266.02 49.8383 226.431C66.2364 186.842 90.2715 150.871 120.571 120.571C150.871 90.2715 186.842 66.2364 226.431 49.8382C266.02 33.44 308.451 25 351.301 25C394.151 25 436.582 33.44 476.171 49.8382C515.76 66.2363 551.731 90.2715 582.031 120.571C612.331 150.871 636.366 186.842 652.764 226.431C669.162 266.02 677.602 308.451 677.602 351.301" stroke="#41137E" stroke-width="50"/>
</svg>
