<svg width="414" height="620" viewBox="0 0 414 620" fill="none" xmlns="http://www.w3.org/2000/svg">
<path d="M928.633 642.031C898.333 672.331 862.362 696.366 822.773 712.764C783.184 729.162 740.754 737.602 697.903 737.602C655.053 737.602 612.622 729.162 573.033 712.764C533.444 696.366 497.473 672.331 467.173 642.031C436.874 611.731 412.838 575.76 396.44 536.171C380.042 496.582 371.602 454.151 371.602 411.301" stroke="#D4A0FF" stroke-width="50"/>
<path d="M-281 351.301C-281 308.451 -272.56 266.02 -256.162 226.431C-239.764 186.842 -215.728 150.871 -185.429 120.571C-155.129 90.2715 -119.158 66.2364 -79.569 49.8382C-39.9803 33.44 2.45057 25 45.301 25C88.1515 25 130.582 33.44 170.171 49.8382C209.76 66.2363 245.731 90.2715 276.031 120.571C306.331 150.871 330.366 186.842 346.764 226.431C363.162 266.02 371.602 308.451 371.602 351.301" stroke="#41137E" stroke-width="50"/>
</svg>
