<svg width="24" height="24" viewBox="0 0 24 24" fill="none" xmlns="http://www.w3.org/2000/svg">
<path d="M12.3696 15.0205C14.1706 15.0205 15.6305 13.5605 15.6305 11.7596C15.6305 9.95871 14.1706 8.49878 12.3696 8.49878C10.5687 8.49878 9.10876 9.95871 9.10876 11.7596C9.10876 13.5605 10.5687 15.0205 12.3696 15.0205Z" stroke="white" stroke-width="1.5" stroke-miterlimit="10" stroke-linecap="round" stroke-linejoin="round"/>
<path d="M1.5 12.7161V10.8031C1.5 9.67267 2.42391 8.73789 3.56522 8.73789C5.53261 8.73789 6.33696 7.3466 5.34783 5.64009C4.78261 4.66183 5.11956 3.3901 6.1087 2.82488L7.98913 1.7488C8.84783 1.23794 9.95652 1.54228 10.4674 2.40097L10.587 2.60749C11.5652 4.31401 13.1739 4.31401 14.163 2.60749L14.2826 2.40097C14.7935 1.54228 15.9022 1.23794 16.7609 1.7488L18.6413 2.82488C19.6304 3.3901 19.9674 4.66183 19.4022 5.64009C18.413 7.3466 19.2174 8.73789 21.1848 8.73789C22.3152 8.73789 23.25 9.6618 23.25 10.8031V12.7161C23.25 13.8466 22.3261 14.7813 21.1848 14.7813C19.2174 14.7813 18.413 16.1726 19.4022 17.8791C19.9674 18.8683 19.6304 20.1291 18.6413 20.6943L16.7609 21.7704C15.9022 22.2813 14.7935 21.9769 14.2826 21.1183L14.163 20.9117C13.1848 19.2052 11.5761 19.2052 10.587 20.9117L10.4674 21.1183C9.95652 21.9769 8.84783 22.2813 7.98913 21.7704L6.1087 20.6943C5.11956 20.1291 4.78261 18.8574 5.34783 17.8791C6.33696 16.1726 5.53261 14.7813 3.56522 14.7813C2.42391 14.7813 1.5 13.8466 1.5 12.7161Z" stroke="white" stroke-width="1.5" stroke-miterlimit="10" stroke-linecap="round" stroke-linejoin="round"/>
</svg>
