<svg width="33" height="33" viewBox="0 0 33 33" fill="none" xmlns="http://www.w3.org/2000/svg">
<path d="M17.7167 3.11465L17.6741 3.21421L13.5496 12.7858H9.49629C8.52918 12.7858 7.60474 12.9849 6.76562 13.3404L9.25451 7.39554L9.3114 7.25332L9.41096 7.02576C9.4394 6.94043 9.46785 6.85509 9.51051 6.78398C11.3736 2.47465 13.4785 1.49332 17.7167 3.11465Z" stroke="#ffffff" stroke-width="3" stroke-linecap="round" stroke-linejoin="round"/>
<path d="M25.3822 13.0702C24.7422 12.8711 24.0595 12.7858 23.3769 12.7858H13.5493L17.6738 3.21424L17.7164 3.11469C17.9298 3.1858 18.1289 3.28535 18.3422 3.37069L21.4853 4.69335C23.2346 5.41869 24.4578 6.17246 25.1973 7.08268C25.3395 7.25335 25.4533 7.4098 25.5529 7.59468C25.6809 7.7938 25.7804 7.99291 25.8373 8.20624C25.8942 8.33424 25.9369 8.46224 25.9653 8.57602C26.3493 9.77068 26.1218 11.2356 25.3822 13.0702Z" stroke="#ffffff" stroke-width="3" stroke-linecap="round" stroke-linejoin="round"/>
<path d="M30.3198 19.7265V22.4998C30.3198 22.7843 30.3056 23.0687 30.2914 23.3532C30.0212 28.3167 27.2478 30.8198 21.9856 30.8198H10.8923C10.5509 30.8198 10.2096 30.7914 9.88249 30.7487C5.35982 30.4501 2.94204 28.0323 2.64338 23.5096C2.60071 23.1825 2.57227 22.8412 2.57227 22.4998V19.7265C2.57227 16.8678 4.30738 14.4074 6.78204 13.3407C7.63538 12.9852 8.5456 12.7861 9.51271 12.7861H23.3936C24.0905 12.7861 24.7732 12.8856 25.3989 13.0705C28.2292 13.9381 30.3198 16.5834 30.3198 19.7265Z" stroke="#ffffff" stroke-width="3" stroke-linecap="round" stroke-linejoin="round"/>
</svg>
