<svg width="25" height="26" viewBox="0 0 25 26" fill="none" xmlns="http://www.w3.org/2000/svg">
<path d="M12.2141 5.72559H23.5082" stroke="white" stroke-width="1.5" stroke-miterlimit="10" stroke-linecap="round" stroke-linejoin="round"/>
<path d="M14.7214 1.70502H21.0009C23.0113 1.70502 23.5082 2.20195 23.5082 4.18969V8.83152C23.5082 10.8193 23.0113 11.3162 21.0009 11.3162H14.7214C12.7111 11.3162 12.2141 10.8193 12.2141 8.83152V4.18969C12.2141 2.20195 12.7111 1.70502 14.7214 1.70502Z" stroke="white" stroke-width="1.5" stroke-linecap="round" stroke-linejoin="round"/>
<path d="M0.920166 18.7139H12.2143" stroke="white" stroke-width="1.5" stroke-miterlimit="10" stroke-linecap="round" stroke-linejoin="round"/>
<path d="M3.42746 14.6932H9.70699C11.7173 14.6932 12.2143 15.1902 12.2143 17.1779V21.8197C12.2143 23.8075 11.7173 24.3044 9.70699 24.3044H3.42746C1.41711 24.3044 0.920166 23.8075 0.920166 21.8197V17.1779C0.920166 15.1902 1.41711 14.6932 3.42746 14.6932Z" stroke="white" stroke-width="1.5" stroke-linecap="round" stroke-linejoin="round"/>
<path d="M23.5084 16.3872C23.5084 20.758 19.9734 24.293 15.6025 24.293L16.7884 22.3165" stroke="white" stroke-width="1.5" stroke-linecap="round" stroke-linejoin="round"/>
<path d="M0.920166 9.61081C0.920166 5.24003 4.45522 1.70502 8.82605 1.70502L7.64018 3.68146" stroke="white" stroke-width="1.5" stroke-linecap="round" stroke-linejoin="round"/>
</svg>
