<svg width="46" height="15" viewBox="0 0 46 15" fill="none" xmlns="http://www.w3.org/2000/svg">
<path d="M45.8925 6.1442C39.5267 11.6214 31.4274 14.6682 23.0299 14.7446C14.6324 14.821 6.47905 11.9221 0.0146484 6.56158L1.35453 4.94578C7.43723 9.98977 15.1092 12.7175 23.0108 12.6456C30.9125 12.5738 38.5336 9.70687 44.5235 4.55304L45.8925 6.1442Z" fill="white"/>
<path d="M45.9853 1.58951C39.6195 7.06675 31.5202 10.1135 23.1227 10.1899C14.7252 10.2663 6.57182 7.36741 0.107422 2.00689L1.4473 0.391088C7.53 5.43508 15.202 8.16284 23.1036 8.09095C31.0053 8.01906 38.6263 5.15218 44.6162 -0.00164413L45.9853 1.58951Z" fill="white"/>
</svg>
